<mxfile host="app.diagrams.net" agent="Mozilla/5.0 (Windows NT 10.0; Win64; x64) AppleWebKit/537.36 (KHTML, like Gecko) Chrome/135.0.0.0 Safari/537.36" version="26.2.9">
  <diagram name="Page-1" id="GUDk41o9dx6fXlC505f_">
    <mxGraphModel dx="1044" dy="562" grid="1" gridSize="10" guides="1" tooltips="1" connect="1" arrows="1" fold="1" page="1" pageScale="1" pageWidth="850" pageHeight="1100" math="0" shadow="0">
      <root>
        <mxCell id="0" />
        <mxCell id="1" parent="0" />
        <mxCell id="1vLMjnn2z2qB1GoUeQnN-1" value="&lt;div style=&quot;color: rgb(204, 204, 204); background-color: rgb(31, 31, 31); font-family: Consolas, &amp;quot;Courier New&amp;quot;, monospace; font-weight: normal; line-height: 19px; white-space: pre;&quot;&gt;&lt;div&gt;&lt;span style=&quot;color: #6a9955;&quot;&gt;// Display the n terms of odd numbers and their sum&lt;/span&gt;&lt;/div&gt;&lt;div&gt;&lt;span style=&quot;color: #6a9955;&quot;&gt;// Step 1: Start&lt;/span&gt;&lt;/div&gt;&lt;div&gt;&lt;span style=&quot;color: #6a9955;&quot;&gt;// Step 2: Initialize variables&lt;/span&gt;&lt;/div&gt;&lt;div&gt;&lt;span style=&quot;color: #6a9955;&quot;&gt;// Step 3: Initialize sum by 0&lt;/span&gt;&lt;/div&gt;&lt;div&gt;&lt;span style=&quot;color: #6a9955;&quot;&gt;// Step 4: Repeat step 5 to 8 if the condition is true (i&amp;lt;=n)&lt;/span&gt;&lt;/div&gt;&lt;div&gt;&lt;span style=&quot;color: #6a9955;&quot;&gt;// Step 5: Check the condition(i%==1) if true then go to step 6 otherwise go to step 8&lt;/span&gt;&lt;/div&gt;&lt;div&gt;&lt;span style=&quot;color: #6a9955;&quot;&gt;// Step 6: Print i&lt;/span&gt;&lt;/div&gt;&lt;div&gt;&lt;span style=&quot;color: #6a9955;&quot;&gt;// Step 7: sum = sum + i&lt;/span&gt;&lt;/div&gt;&lt;div&gt;&lt;span style=&quot;color: #6a9955;&quot;&gt;// Step 8: Go to step 4&lt;/span&gt;&lt;/div&gt;&lt;div&gt;&lt;span style=&quot;color: #6a9955;&quot;&gt;// Step 9: Print sum&lt;/span&gt;&lt;/div&gt;&lt;div&gt;&lt;span style=&quot;color: #6a9955;&quot;&gt;// Step 10: End&lt;/span&gt;&lt;/div&gt;&lt;/div&gt;" style="text;whiteSpace=wrap;html=1;fontSize=14;" vertex="1" parent="1">
          <mxGeometry x="40" y="30" width="560" height="230" as="geometry" />
        </mxCell>
        <mxCell id="1vLMjnn2z2qB1GoUeQnN-5" value="" style="edgeStyle=orthogonalEdgeStyle;rounded=0;orthogonalLoop=1;jettySize=auto;html=1;fontSize=14;" edge="1" parent="1" source="1vLMjnn2z2qB1GoUeQnN-2" target="1vLMjnn2z2qB1GoUeQnN-4">
          <mxGeometry relative="1" as="geometry" />
        </mxCell>
        <mxCell id="1vLMjnn2z2qB1GoUeQnN-2" value="Start" style="strokeWidth=2;html=1;shape=mxgraph.flowchart.start_1;whiteSpace=wrap;fontSize=14;" vertex="1" parent="1">
          <mxGeometry x="375" y="300" width="100" height="60" as="geometry" />
        </mxCell>
        <mxCell id="1vLMjnn2z2qB1GoUeQnN-3" value="End" style="strokeWidth=2;html=1;shape=mxgraph.flowchart.start_1;whiteSpace=wrap;fontSize=14;" vertex="1" parent="1">
          <mxGeometry x="375" y="1320" width="100" height="60" as="geometry" />
        </mxCell>
        <mxCell id="1vLMjnn2z2qB1GoUeQnN-7" value="" style="edgeStyle=orthogonalEdgeStyle;rounded=0;orthogonalLoop=1;jettySize=auto;html=1;fontSize=14;" edge="1" parent="1" source="1vLMjnn2z2qB1GoUeQnN-4" target="1vLMjnn2z2qB1GoUeQnN-6">
          <mxGeometry relative="1" as="geometry" />
        </mxCell>
        <mxCell id="1vLMjnn2z2qB1GoUeQnN-4" value="int n, sum = 0" style="whiteSpace=wrap;html=1;strokeWidth=2;fontSize=14;" vertex="1" parent="1">
          <mxGeometry x="365" y="390" width="120" height="60" as="geometry" />
        </mxCell>
        <mxCell id="1vLMjnn2z2qB1GoUeQnN-9" value="" style="edgeStyle=orthogonalEdgeStyle;rounded=0;orthogonalLoop=1;jettySize=auto;html=1;fontSize=14;" edge="1" parent="1" source="1vLMjnn2z2qB1GoUeQnN-6" target="1vLMjnn2z2qB1GoUeQnN-8">
          <mxGeometry relative="1" as="geometry" />
        </mxCell>
        <mxCell id="1vLMjnn2z2qB1GoUeQnN-6" value="Enter n" style="shape=parallelogram;perimeter=parallelogramPerimeter;whiteSpace=wrap;html=1;fixedSize=1;strokeWidth=2;fontSize=14;" vertex="1" parent="1">
          <mxGeometry x="365" y="500" width="120" height="60" as="geometry" />
        </mxCell>
        <mxCell id="1vLMjnn2z2qB1GoUeQnN-11" value="" style="edgeStyle=orthogonalEdgeStyle;rounded=0;orthogonalLoop=1;jettySize=auto;html=1;fontSize=14;" edge="1" parent="1" source="1vLMjnn2z2qB1GoUeQnN-8" target="1vLMjnn2z2qB1GoUeQnN-10">
          <mxGeometry relative="1" as="geometry" />
        </mxCell>
        <mxCell id="1vLMjnn2z2qB1GoUeQnN-20" value="True" style="edgeLabel;html=1;align=center;verticalAlign=middle;resizable=0;points=[];fontSize=14;" vertex="1" connectable="0" parent="1vLMjnn2z2qB1GoUeQnN-11">
          <mxGeometry x="-0.12" relative="1" as="geometry">
            <mxPoint as="offset" />
          </mxGeometry>
        </mxCell>
        <mxCell id="1vLMjnn2z2qB1GoUeQnN-34" value="" style="edgeStyle=orthogonalEdgeStyle;rounded=0;orthogonalLoop=1;jettySize=auto;html=1;fontSize=14;" edge="1" parent="1" source="1vLMjnn2z2qB1GoUeQnN-8" target="1vLMjnn2z2qB1GoUeQnN-33">
          <mxGeometry relative="1" as="geometry" />
        </mxCell>
        <mxCell id="1vLMjnn2z2qB1GoUeQnN-39" value="False" style="edgeLabel;html=1;align=center;verticalAlign=middle;resizable=0;points=[];fontSize=14;" vertex="1" connectable="0" parent="1vLMjnn2z2qB1GoUeQnN-34">
          <mxGeometry x="-0.5713" y="-3" relative="1" as="geometry">
            <mxPoint as="offset" />
          </mxGeometry>
        </mxCell>
        <mxCell id="1vLMjnn2z2qB1GoUeQnN-8" value="i &amp;lt;= n" style="rhombus;whiteSpace=wrap;html=1;strokeWidth=2;fontSize=14;" vertex="1" parent="1">
          <mxGeometry x="385" y="610" width="80" height="80" as="geometry" />
        </mxCell>
        <mxCell id="1vLMjnn2z2qB1GoUeQnN-24" value="" style="edgeStyle=orthogonalEdgeStyle;rounded=0;orthogonalLoop=1;jettySize=auto;html=1;fontSize=14;" edge="1" parent="1" source="1vLMjnn2z2qB1GoUeQnN-10" target="1vLMjnn2z2qB1GoUeQnN-23">
          <mxGeometry relative="1" as="geometry" />
        </mxCell>
        <mxCell id="1vLMjnn2z2qB1GoUeQnN-29" value="True" style="edgeLabel;html=1;align=center;verticalAlign=middle;resizable=0;points=[];fontSize=14;" vertex="1" connectable="0" parent="1vLMjnn2z2qB1GoUeQnN-24">
          <mxGeometry x="-0.3689" y="-1" relative="1" as="geometry">
            <mxPoint as="offset" />
          </mxGeometry>
        </mxCell>
        <mxCell id="1vLMjnn2z2qB1GoUeQnN-28" value="" style="edgeStyle=orthogonalEdgeStyle;rounded=0;orthogonalLoop=1;jettySize=auto;html=1;fontSize=14;" edge="1" parent="1" source="1vLMjnn2z2qB1GoUeQnN-10" target="1vLMjnn2z2qB1GoUeQnN-27">
          <mxGeometry relative="1" as="geometry" />
        </mxCell>
        <mxCell id="1vLMjnn2z2qB1GoUeQnN-32" value="False" style="edgeLabel;html=1;align=center;verticalAlign=middle;resizable=0;points=[];fontSize=14;" vertex="1" connectable="0" parent="1vLMjnn2z2qB1GoUeQnN-28">
          <mxGeometry x="-0.0286" y="1" relative="1" as="geometry">
            <mxPoint as="offset" />
          </mxGeometry>
        </mxCell>
        <mxCell id="1vLMjnn2z2qB1GoUeQnN-10" value="i % 2 ==1" style="rhombus;whiteSpace=wrap;html=1;strokeWidth=2;fontSize=14;" vertex="1" parent="1">
          <mxGeometry x="370" y="740" width="110" height="80" as="geometry" />
        </mxCell>
        <mxCell id="1vLMjnn2z2qB1GoUeQnN-26" value="" style="edgeStyle=orthogonalEdgeStyle;rounded=0;orthogonalLoop=1;jettySize=auto;html=1;fontSize=14;" edge="1" parent="1" source="1vLMjnn2z2qB1GoUeQnN-23" target="1vLMjnn2z2qB1GoUeQnN-25">
          <mxGeometry relative="1" as="geometry" />
        </mxCell>
        <mxCell id="1vLMjnn2z2qB1GoUeQnN-23" value="Print i" style="shape=parallelogram;perimeter=parallelogramPerimeter;whiteSpace=wrap;html=1;fixedSize=1;strokeWidth=2;fontSize=14;" vertex="1" parent="1">
          <mxGeometry x="620" y="850" width="120" height="60" as="geometry" />
        </mxCell>
        <mxCell id="1vLMjnn2z2qB1GoUeQnN-41" value="" style="edgeStyle=orthogonalEdgeStyle;rounded=0;orthogonalLoop=1;jettySize=auto;html=1;entryX=1;entryY=0.5;entryDx=0;entryDy=0;fontSize=14;" edge="1" parent="1" source="1vLMjnn2z2qB1GoUeQnN-25" target="1vLMjnn2z2qB1GoUeQnN-27">
          <mxGeometry relative="1" as="geometry">
            <mxPoint x="520" y="980" as="targetPoint" />
          </mxGeometry>
        </mxCell>
        <mxCell id="1vLMjnn2z2qB1GoUeQnN-25" value="sum = sum + i" style="whiteSpace=wrap;html=1;strokeWidth=2;fontSize=14;" vertex="1" parent="1">
          <mxGeometry x="620" y="950" width="120" height="60" as="geometry" />
        </mxCell>
        <mxCell id="1vLMjnn2z2qB1GoUeQnN-31" value="" style="edgeStyle=orthogonalEdgeStyle;rounded=0;orthogonalLoop=1;jettySize=auto;html=1;exitX=0;exitY=0.25;exitDx=0;exitDy=0;fontSize=14;" edge="1" parent="1" source="1vLMjnn2z2qB1GoUeQnN-27">
          <mxGeometry relative="1" as="geometry">
            <mxPoint x="325" y="990" as="sourcePoint" />
            <mxPoint x="380" y="650" as="targetPoint" />
            <Array as="points">
              <mxPoint x="365" y="980" />
              <mxPoint x="90" y="980" />
              <mxPoint x="90" y="650" />
              <mxPoint x="280" y="650" />
            </Array>
          </mxGeometry>
        </mxCell>
        <mxCell id="1vLMjnn2z2qB1GoUeQnN-27" value="i++" style="whiteSpace=wrap;html=1;strokeWidth=2;fontSize=14;" vertex="1" parent="1">
          <mxGeometry x="365" y="950" width="120" height="60" as="geometry" />
        </mxCell>
        <mxCell id="1vLMjnn2z2qB1GoUeQnN-37" value="" style="edgeStyle=orthogonalEdgeStyle;rounded=0;orthogonalLoop=1;jettySize=auto;html=1;fontSize=14;" edge="1" parent="1" source="1vLMjnn2z2qB1GoUeQnN-33" target="1vLMjnn2z2qB1GoUeQnN-36">
          <mxGeometry relative="1" as="geometry" />
        </mxCell>
        <mxCell id="1vLMjnn2z2qB1GoUeQnN-33" value="Print sum" style="shape=parallelogram;perimeter=parallelogramPerimeter;whiteSpace=wrap;html=1;fixedSize=1;strokeWidth=2;fontSize=14;" vertex="1" parent="1">
          <mxGeometry x="760" y="1061" width="120" height="60" as="geometry" />
        </mxCell>
        <mxCell id="1vLMjnn2z2qB1GoUeQnN-38" value="" style="edgeStyle=orthogonalEdgeStyle;rounded=0;orthogonalLoop=1;jettySize=auto;html=1;fontSize=14;" edge="1" parent="1" source="1vLMjnn2z2qB1GoUeQnN-36" target="1vLMjnn2z2qB1GoUeQnN-3">
          <mxGeometry relative="1" as="geometry" />
        </mxCell>
        <mxCell id="1vLMjnn2z2qB1GoUeQnN-36" value="" style="ellipse;whiteSpace=wrap;html=1;strokeWidth=2;fontSize=14;" vertex="1" parent="1">
          <mxGeometry x="385" y="1180" width="80" height="80" as="geometry" />
        </mxCell>
      </root>
    </mxGraphModel>
  </diagram>
</mxfile>
